<?xml version="1.0" encoding="UTF-8" standalone="no"?>
<!-- Created with Inkscape (http://www.inkscape.org/) -->

<svg
   width="856.03"
   height="196.63"
   version="1.1"
   viewBox="0 0 856.03 196.63"
   id="svg32"
   sodipodi:docname="logo-memo-tag-white.svg"
   inkscape:version="1.4.2 (f4327f4, 2025-05-13)"
   inkscape:export-filename="logo-memo-tag-white.svg"
   inkscape:export-xdpi="96"
   inkscape:export-ydpi="96"
   xmlns:inkscape="http://www.inkscape.org/namespaces/inkscape"
   xmlns:sodipodi="http://sodipodi.sourceforge.net/DTD/sodipodi-0.dtd"
   xmlns="http://www.w3.org/2000/svg"
   xmlns:svg="http://www.w3.org/2000/svg">
  <sodipodi:namedview
     id="namedview32"
     pagecolor="#ffffff"
     bordercolor="#000000"
     borderopacity="0.25"
     inkscape:showpageshadow="2"
     inkscape:pageopacity="0.0"
     inkscape:pagecheckerboard="0"
     inkscape:deskcolor="#d1d1d1"
     inkscape:zoom="2.0653481"
     inkscape:cx="611.76128"
     inkscape:cy="98.530606"
     inkscape:window-width="1920"
     inkscape:window-height="974"
     inkscape:window-x="-11"
     inkscape:window-y="-11"
     inkscape:window-maximized="1"
     inkscape:current-layer="g32" />
  <defs
     id="defs16">
    <linearGradient
       id="swatch32"
       inkscape:swatch="solid">
      <stop
         style="stop-color:#070402;stop-opacity:1;"
         offset="0"
         id="stop32" />
    </linearGradient>
    <linearGradient
       id="linearGradient6"
       x2="1"
       gradientTransform="matrix(169.16 0 0 -169.16 78.616 2823.1)"
       gradientUnits="userSpaceOnUse">
      <stop
         stop-color="#18476a"
         offset="0"
         id="stop1" />
      <stop
         stop-color="#42b3ae"
         offset=".49834"
         id="stop2" />
      <stop
         stop-color="#80d190"
         offset="1"
         id="stop3" />
    </linearGradient>
    <clipPath
       id="clipPath8">
      <path
         transform="translate(-305.69 -2831.9)"
         d="M 0,3074.101 H 841.89 V 0 H 0 Z"
         id="path3" />
    </clipPath>
    <clipPath
       id="clipPath10">
      <path
         transform="translate(-343.11 -2798.8)"
         d="M 0,3074.101 H 841.89 V 0 H 0 Z"
         id="path4" />
    </clipPath>
    <clipPath
       id="clipPath12">
      <path
         transform="translate(-437.4 -2831.9)"
         d="M 0,3074.101 H 841.89 V 0 H 0 Z"
         id="path5" />
    </clipPath>
    <clipPath
       id="clipPath14">
      <path
         transform="translate(-504.66 -2794.1)"
         d="M 0,3074.101 H 841.89 V 0 H 0 Z"
         id="path6" />
    </clipPath>
    <clipPath
       id="clipPath16">
      <path
         d="M 0,3074.101 H 841.89 V 0 H 0 Z"
         id="path7" />
    </clipPath>
    <linearGradient
       id="linearGradient18"
       x2="1"
       gradientTransform="matrix(166.21 0 0 -166.21 554.42 2803.5)"
       gradientUnits="userSpaceOnUse">
      <stop
         stop-color="#18476a"
         offset="0"
         id="stop7" />
      <stop
         stop-color="#42b3ae"
         offset=".49834"
         id="stop8" />
      <stop
         stop-color="#80d190"
         offset="1"
         id="stop9" />
    </linearGradient>
    <clipPath
       id="clipPath20">
      <path
         transform="translate(-143.76 -2800.2)"
         d="M 0,3074.101 H 841.89 V 0 H 0 Z"
         id="path9" />
    </clipPath>
    <clipPath
       id="clipPath22">
      <path
         transform="translate(-218.89 -2836.5)"
         d="M 0,3074.101 H 841.89 V 0 H 0 Z"
         id="path10" />
    </clipPath>
    <linearGradient
       id="linearGradient24"
       x2="1"
       gradientTransform="matrix(40.357 0 0 -40.357 164.12 2839.8)"
       gradientUnits="userSpaceOnUse">
      <stop
         stop-color="#a1dda8"
         offset="0"
         id="stop10" />
      <stop
         stop-color="#fff"
         offset=".67789"
         id="stop11" />
      <stop
         stop-color="#fff"
         offset="1"
         id="stop12" />
    </linearGradient>
    <clipPath
       id="clipPath116">
      <path
         transform="translate(-305.69 -2831.9)"
         d="M 0,3074.101 H 841.89 V 0 H 0 Z"
         id="path12" />
    </clipPath>
    <clipPath
       id="clipPath118">
      <path
         transform="translate(-343.11 -2798.8)"
         d="M 0,3074.101 H 841.89 V 0 H 0 Z"
         id="path13" />
    </clipPath>
    <clipPath
       id="clipPath120">
      <path
         transform="translate(-437.4 -2831.9)"
         d="M 0,3074.101 H 841.89 V 0 H 0 Z"
         id="path14" />
    </clipPath>
    <clipPath
       id="clipPath122">
      <path
         transform="translate(-504.66 -2794.1)"
         d="M 0,3074.101 H 841.89 V 0 H 0 Z"
         id="path15" />
    </clipPath>
    <clipPath
       id="clipPath124">
      <path
         d="M 0,3074.101 H 841.89 V 0 H 0 Z"
         id="path16" />
    </clipPath>
  </defs>
  <g
     transform="translate(-104.82 -236.3)"
     id="g32">
    <path
       transform="matrix(1.3333 0 0 -1.3333 0 4098.8)"
       d="m196.33 2892.6c0-2.348 1.904-4.252 4.252-4.252 21.333 0 38.69-17.356 38.69-38.689 0-2.348 1.903-4.252 4.251-4.252 2.349 0 4.253 1.904 4.253 4.252 0 26.022-21.172 47.193-47.194 47.193-2.348 0-4.252-1.904-4.252-4.252m-80.86-10.942c-20.268 0-36.85-16.584-36.85-36.851v-58.578c0-20.268 16.582-36.851 36.85-36.851h79.685c20.268 0 36.85 16.583 36.85 36.851v58.578c0 20.267-16.582 36.851-36.85 36.851z"
       fill="url(#linearGradient6)"
       id="path17" />
    <g
       fill="#070402"
       id="g22">
      <path
         transform="matrix(1.3333 0 0 -1.3333 407.59 322.99)"
         d="m0 0-20.897-35.235-21.222 35.235h-10.855v-56.7h12.313v33.291l16.604-27.297h5.913l16.686 28.026 0.081-34.02h12.313l-0.163 56.7z"
         clip-path="url(#clipPath8)"
         id="path18" />
      <path
         transform="matrix(1.3333 0 0 -1.3333 457.48 367.05)"
         d="m0 0h26.324v10.206h-26.324v12.312h29.808v10.53h-42.849v-56.7h43.901v10.53h-30.86z"
         clip-path="url(#clipPath10)"
         id="path19" />
      <path
         transform="matrix(1.3333 0 0 -1.3333 583.19 322.99)"
         d="m0 0-20.898-35.235-21.222 35.235h-10.855v-56.7h12.313v33.291l16.603-27.297h5.914l16.686 28.026 0.082-34.02h12.311l-0.163 56.7z"
         clip-path="url(#clipPath12)"
         id="path20" />
      <path
         transform="matrix(1.3333 0 0 -1.3333 672.89 373.31)"
         d="m0 0c-1.539-2.754-3.659-4.9-6.358-6.439-2.702-1.54-5.725-2.309-9.073-2.309s-6.372 0.769-9.071 2.309c-2.701 1.539-4.82 3.685-6.358 6.439-1.539 2.754-2.309 5.885-2.309 9.396 0 3.509 0.77 6.642 2.309 9.396 1.538 2.754 3.657 4.9 6.358 6.439 2.699 1.54 5.723 2.309 9.071 2.309s6.371-0.769 9.073-2.309c2.699-1.539 4.819-3.685 6.358-6.439s2.309-5.887 2.309-9.396c0-3.511-0.77-6.642-2.309-9.396m0.445 34.911c-4.697 2.537-9.99 3.807-15.876 3.807-5.885 0-11.191-1.27-15.916-3.807-4.725-2.539-8.424-6.035-11.096-10.49-2.674-4.455-4.01-9.464-4.01-15.025 0-5.563 1.336-10.571 4.01-15.025 2.672-4.455 6.371-7.953 11.096-10.49 4.725-2.539 10.031-3.807 15.916-3.807 5.886 0 11.179 1.268 15.876 3.807 4.699 2.537 8.397 6.035 11.098 10.49 2.699 4.454 4.05 9.462 4.05 15.025 0 5.561-1.351 10.57-4.05 15.025-2.701 4.455-6.399 7.951-11.098 10.49"
         clip-path="url(#clipPath14)"
         id="path21" />
      <path
         transform="matrix(1.3333 0 0 -1.3333 0 4098.8)"
         d="m527.95 2792.9h22.923v10.125h-22.923z"
         clip-path="url(#clipPath16)"
         id="path22" />
    </g>
    <path
       transform="matrix(1.3333 0 0 -1.3333 0 4098.8)"
       d="m680.86 2829.1c-4.752-2.511-8.465-5.994-11.138-10.449s-4.01-9.49-4.01-15.107c0-5.616 1.337-10.65 4.01-15.106 2.673-4.455 6.359-7.937 11.057-10.449 4.698-2.51 9.99-3.767 15.876-3.767 4.103 0 8.181 0.622 12.231 1.863 4.05 1.243 7.614 3.025 10.692 5.347v23.004h-11.988v-16.605c-3.025-1.621-6.427-2.43-10.206-2.43-3.564 0-6.738 0.769-9.518 2.308-2.782 1.54-4.955 3.686-6.521 6.439-1.565 2.755-2.349 5.886-2.349 9.396 0 3.565 0.784 6.724 2.349 9.477 1.566 2.755 3.754 4.887 6.561 6.399 2.808 1.513 6.022 2.268 9.639 2.268 5.724 0 10.611-2.133 14.662-6.398l8.424 7.775c-2.755 3.186-6.156 5.617-10.206 7.29-4.05 1.674-8.56 2.511-13.528 2.511-5.94 0-11.285-1.255-16.037-3.766m-54.999 2.795-25.272-56.7h13.445l5.022 12.149h26.325l5.023-12.149h13.769l-25.352 56.7zm6.398-12.879 8.991-21.708h-17.981zm-77.841 12.879v-10.692h18.144v-46.008h13.122v46.008h18.144v10.692z"
       fill="url(#linearGradient18)"
       id="path23" />
    <path
       transform="matrix(1.3333 0 0 -1.3333 191.68 365.19)"
       d="m0 0c2.649-2.664 7.703-4.123 12.1-3.741 4.465 0.391 8.509 2.496 11.39 5.929 2.88 3.433 4.251 7.782 3.861 12.245-0.391 4.464-2.497 8.509-5.929 11.39-0.115 0.096-0.234 0.188-0.356 0.275-1.096 0.786-26.869 19.253-28.916 20.697-1.808 1.276-11.269 7.426-19.943 3.075-6.27-3.143-9.605-10.553-9.911-22.022-1e-3 -0.052-2e-3 -0.104-2e-3 -0.157v-30.252c-0.132-1.939-0.25-9.634 5.414-15.914 4.57-5.066 11.414-7.634 20.344-7.634h46.999c8.93 0 15.774 2.568 20.343 7.634 5.664 6.28 5.547 13.975 5.415 15.914v30.252c0 0.053-1e-3 0.105-2e-3 0.158-0.306 11.468-3.64 18.877-9.911 22.021-8.673 4.349-18.135-1.798-19.944-3.075-1.392-0.983-6.771-4.687-9.938-6.865 0 0-1.38-0.828 0.188-1.917l7.926-5.487s0.785-0.782 2.222 0.197c2.68 1.826 5.427 3.744 6.405 4.434 2.121 1.497 5.565 3.298 7.661 2.032 1.811-1.094 3.386-4.096 3.596-11.578v-30.405c0-0.203 4e-3 -0.336 0.025-0.538 3e-3 -0.042 0.302-4.319-2.472-7.318-2.248-2.43-6.122-3.662-11.514-3.662h-46.999c-5.392 0-9.266 1.232-11.513 3.662-2.766 2.99-2.478 7.249-2.479 7.249 0.02 0.202 0.031 0.404 0.031 0.607v30.405c0.21 7.482 1.894 10.957 3.403 11.714 1.823 0.912 5.733-0.671 7.854-2.168 1.915-1.352 26.065-18.654 28.629-20.492 0.937-0.845 1.511-1.996 1.621-3.26 0.117-1.325-0.291-2.615-1.146-3.634-0.854-1.019-2.055-1.644-3.379-1.76-1.323-0.12-2.616 0.291-3.635 1.146-0.087 0.073-0.177 0.144-0.267 0.212l-13.32 9.83s-1.393 1.306-2.787 0.348 1.829-12.848 8.936-19.547"
       clip-path="url(#clipPath20)"
       fill="#fff"
       id="path24" />
    <path
       transform="matrix(1.3333 0 0 -1.3333 291.86 316.77)"
       d="m0 0c-2.349 0-4.252 1.904-4.252 4.252 0 12.332-10.032 22.365-22.364 22.365-2.348 0-4.252 1.904-4.252 4.252s1.904 4.252 4.252 4.252c17.02 0 30.868-13.848 30.868-30.869 0-2.348-1.903-4.252-4.252-4.252"
       clip-path="url(#clipPath22)"
       fill="#fff"
       id="path25" />
    <path
       transform="matrix(1.3333 0 0 -1.3333 0 4098.8)"
       d="m174.62 2847c-1.393-0.983-6.772-4.686-9.939-6.865 0 0-1.38-0.828 0.188-1.916l7.927-5.487s0.784-0.782 2.221 0.197c2.681 1.826 5.428 3.744 6.405 4.434 2.12 1.497 5.566 3.298 7.662 2.031 1.811-1.093 3.385-4.096 3.595-11.577l11.797 0.08c0 0.052 0 0.105-1e-3 0.157-0.306 11.469-3.641 18.878-9.912 22.021-2.208 1.108-4.468 1.535-6.639 1.535-6.357 0-11.956-3.658-13.304-4.61"
       fill="url(#linearGradient24)"
       id="path26" />
    <g
       fill="#070402"
       id="g31"
       style="fill:#f8fafc;fill-opacity:1">
      <path
         transform="matrix(1.3333 0 0 -1.3333 407.59 322.99)"
         d="m0 0-20.897-35.235-21.222 35.235h-10.855v-56.7h12.313v33.291l16.604-27.297h5.913l16.686 28.026 0.081-34.02h12.313l-0.163 56.7z"
         clip-path="url(#clipPath116)"
         id="path27"
         style="fill:#f8fafc;fill-opacity:1" />
      <path
         transform="matrix(1.3333 0 0 -1.3333 457.48 367.05)"
         d="m0 0h26.324v10.206h-26.324v12.312h29.808v10.53h-42.849v-56.7h43.901v10.53h-30.86z"
         clip-path="url(#clipPath118)"
         id="path28"
         style="fill:#f8fafc;fill-opacity:1" />
      <path
         transform="matrix(1.3333 0 0 -1.3333 583.19 322.99)"
         d="m0 0-20.898-35.235-21.222 35.235h-10.855v-56.7h12.313v33.291l16.603-27.297h5.914l16.686 28.026 0.082-34.02h12.311l-0.163 56.7z"
         clip-path="url(#clipPath120)"
         id="path29"
         style="fill:#f8fafc;fill-opacity:1" />
      <path
         transform="matrix(1.3333 0 0 -1.3333 672.89 373.31)"
         d="m0 0c-1.539-2.754-3.659-4.9-6.358-6.439-2.702-1.54-5.725-2.309-9.073-2.309s-6.372 0.769-9.071 2.309c-2.701 1.539-4.82 3.685-6.358 6.439-1.539 2.754-2.309 5.885-2.309 9.396 0 3.509 0.77 6.642 2.309 9.396 1.538 2.754 3.657 4.9 6.358 6.439 2.699 1.54 5.723 2.309 9.071 2.309s6.371-0.769 9.073-2.309c2.699-1.539 4.819-3.685 6.358-6.439s2.309-5.887 2.309-9.396c0-3.511-0.77-6.642-2.309-9.396m0.445 34.911c-4.697 2.537-9.99 3.807-15.876 3.807-5.885 0-11.191-1.27-15.916-3.807-4.725-2.539-8.424-6.035-11.096-10.49-2.674-4.455-4.01-9.464-4.01-15.025 0-5.563 1.336-10.571 4.01-15.025 2.672-4.455 6.371-7.953 11.096-10.49 4.725-2.539 10.031-3.807 15.916-3.807 5.886 0 11.179 1.268 15.876 3.807 4.699 2.537 8.397 6.035 11.098 10.49 2.699 4.454 4.05 9.462 4.05 15.025 0 5.561-1.351 10.57-4.05 15.025-2.701 4.455-6.399 7.951-11.098 10.49"
         clip-path="url(#clipPath122)"
         id="path30"
         style="fill:#f8fafc;fill-opacity:1" />
      <path
         transform="matrix(1.3333 0 0 -1.3333 0 4098.8)"
         d="m527.95 2792.9h22.923v10.125h-22.923z"
         clip-path="url(#clipPath124)"
         id="path31"
         style="fill:#f8fafc;fill-opacity:1" />
    </g>
    <path
       transform="matrix(1.3333 0 0 -1.3333 0 4098.8)"
       d="m680.86 2829.1c-4.752-2.511-8.465-5.994-11.138-10.449-2.674-4.455-4.01-9.49-4.01-15.107 0-5.616 1.336-10.65 4.01-15.106 2.673-4.455 6.359-7.937 11.056-10.449 4.699-2.51 9.991-3.767 15.876-3.767 4.104 0 8.182 0.622 12.232 1.863 4.05 1.243 7.614 3.025 10.692 5.347v23.004h-11.988v-16.605c-3.025-1.621-6.427-2.43-10.206-2.43-3.565 0-6.738 0.769-9.518 2.308-2.782 1.54-4.955 3.686-6.521 6.439-1.566 2.755-2.349 5.886-2.349 9.396 0 3.565 0.783 6.724 2.349 9.477 1.566 2.755 3.754 4.887 6.561 6.399 2.808 1.513 6.022 2.268 9.639 2.268 5.724 0 10.611-2.133 14.662-6.398l8.424 7.775c-2.755 3.186-6.156 5.617-10.206 7.29-4.05 1.674-8.56 2.511-13.528 2.511-5.94 0-11.286-1.255-16.037-3.766m-54.999 2.795-25.272-56.7h13.445l5.022 12.149h26.325l5.022-12.149h13.77l-25.353 56.7zm6.398-12.879 8.991-21.708h-17.981zm-77.841 12.879v-10.692h18.144v-46.008h13.122v46.008h18.144v10.692z"
       fill="url(#linearGradient18)"
       id="path32"
       style="stroke:#8ec89a;stroke-opacity:1" />
  </g>
</svg>
